<svg width="24" height="24" viewBox="0 0 24 24" fill="none" xmlns="http://www.w3.org/2000/svg">
<path fill-rule="evenodd" clip-rule="evenodd" d="M5.79375 18.3421875c0.6046875-0.44062500000000004 1.3875000000000002-0.5531250000000001 2.090625-0.30000000000000004c1.2421875 0.45 2.6343750000000004 0.7078125000000001 4.1156250000000005 0.7078125000000001c5.8453125 0.0 9.75-3.7734375 9.75-7.5s-3.9046875-7.5-9.75-7.5S2.25 7.5234375 2.25 11.25c0.0 1.5 0.58125 2.94375 1.6734375000000001 4.18125c0.403125 0.45468749999999997 0.6000000000000001 1.0546875 0.5531250000000001 1.6640625c-0.065625 0.8484375000000001-0.2671875 1.6265625000000001-0.5296875000000001 2.3156250000000003c0.796875-0.37031250000000004 1.4578125000000002-0.7828125 1.846875-1.0640625000000001zM0.99375 20.2453125c0.084375-0.12656250000000002 0.1640625-0.25312500000000004 0.23906249999999998-0.3796875c0.46875-0.7781250000000001 0.9140625-1.8 1.003125-2.9484375000000003C0.8296875 15.318750000000001 0.0 13.364062500000001 0.0 11.25C0.0 5.8640625 5.371875 1.5 12.0 1.5s12.0 4.3640625 12.0 9.75s-5.371875 9.75-12.0 9.75c-1.7390625000000002 0.0-3.3890625-0.30000000000000004-4.8796875-0.8390624999999999c-0.5578125 0.40781249999999997-1.4671875 0.9656250000000001-2.5453125 1.4343750000000002c-0.7078125000000001 0.309375-1.5140624999999999 0.5906250000000001-2.3484375 0.7546875000000001c-0.037500000000000006 0.009375000000000001-0.07500000000000001 0.0140625-0.1125 0.0234375c-0.20625000000000002 0.037500000000000006-0.40781249999999997 0.0703125-0.61875 0.0890625c-0.009375000000000001 0.0-0.0234375 0.004687500000000001-0.0328125 0.004687500000000001c-0.23906249999999998 0.0234375-0.47812499999999997 0.037500000000000006-0.7171875000000001 0.037500000000000006c-0.3046875 0.0-0.5765625000000001-0.18281250000000002-0.6937500000000001-0.46406250000000004c-0.1171875-0.28125-0.051562500000000004-0.6000000000000001 0.15937500000000002-0.8156249999999999c0.19218749999999998-0.19687500000000002 0.36562500000000003-0.40781249999999997 0.5296875000000001-0.6328125c0.07968750000000001-0.10781249999999999 0.1546875-0.21562499999999998 0.225-0.32343750000000004c0.004687500000000001-0.009375000000000001 0.009375000000000001-0.0140625 0.0140625-0.0234375z" fill="white"/>
<mask id="mask0_0_724" style="mask-type:luminance" maskUnits="userSpaceOnUse" x="0" y="0" width="24" height="23">
<path fill-rule="evenodd" clip-rule="evenodd" d="M5.79375 18.3421875c0.6046875-0.44062500000000004 1.3875000000000002-0.5531250000000001 2.090625-0.30000000000000004c1.2421875 0.45 2.6343750000000004 0.7078125000000001 4.1156250000000005 0.7078125000000001c5.8453125 0.0 9.75-3.7734375 9.75-7.5s-3.9046875-7.5-9.75-7.5S2.25 7.5234375 2.25 11.25c0.0 1.5 0.58125 2.94375 1.6734375000000001 4.18125c0.403125 0.45468749999999997 0.6000000000000001 1.0546875 0.5531250000000001 1.6640625c-0.065625 0.8484375000000001-0.2671875 1.6265625000000001-0.5296875000000001 2.3156250000000003c0.796875-0.37031250000000004 1.4578125000000002-0.7828125 1.846875-1.0640625000000001zM0.99375 20.2453125c0.084375-0.12656250000000002 0.1640625-0.25312500000000004 0.23906249999999998-0.3796875c0.46875-0.7781250000000001 0.9140625-1.8 1.003125-2.9484375000000003C0.8296875 15.318750000000001 0.0 13.364062500000001 0.0 11.25C0.0 5.8640625 5.371875 1.5 12.0 1.5s12.0 4.3640625 12.0 9.75s-5.371875 9.75-12.0 9.75c-1.7390625000000002 0.0-3.3890625-0.30000000000000004-4.8796875-0.8390624999999999c-0.5578125 0.40781249999999997-1.4671875 0.9656250000000001-2.5453125 1.4343750000000002c-0.7078125000000001 0.309375-1.5140624999999999 0.5906250000000001-2.3484375 0.7546875000000001c-0.037500000000000006 0.009375000000000001-0.07500000000000001 0.0140625-0.1125 0.0234375c-0.20625000000000002 0.037500000000000006-0.40781249999999997 0.0703125-0.61875 0.0890625c-0.009375000000000001 0.0-0.0234375 0.004687500000000001-0.0328125 0.004687500000000001c-0.23906249999999998 0.0234375-0.47812499999999997 0.037500000000000006-0.7171875000000001 0.037500000000000006c-0.3046875 0.0-0.5765625000000001-0.18281250000000002-0.6937500000000001-0.46406250000000004c-0.1171875-0.28125-0.051562500000000004-0.6000000000000001 0.15937500000000002-0.8156249999999999c0.19218749999999998-0.19687500000000002 0.36562500000000003-0.40781249999999997 0.5296875000000001-0.6328125c0.07968750000000001-0.10781249999999999 0.1546875-0.21562499999999998 0.225-0.32343750000000004c0.004687500000000001-0.009375000000000001 0.009375000000000001-0.0140625 0.0140625-0.0234375z" fill="white"/>
</mask>
<g mask="url(#mask0_0_724)">
</g>
</svg>
